<svg height="20" viewBox="0 0 20 20" width="20" xmlns="http://www.w3.org/2000/svg"><path d="m22 5533h2v-8h-2zm-1 4h-1v2h2c1.105 0 2-.895 2-2v-2h-2v1c0 .552-.448 1-1 1zm-1-18v2h1c.552 0 1 .448 1 1v1h2v-2c0-1.105-.895-2-2-2zm-16 14h2v-8h-2zm2 2h-2v2c0 1.105.895 2 2 2h2v-2h-1c-.552 0-1-.448-1-1zm1-14h1v-2h-2c-1.105 0-2 .895-2 2v2h2v-1c0-.552.448-1 1-1zm3 18h8v-2h-8zm0-18h8v-2h-8zm7 7h2c.552 0 1-.448 1-1v-2c0-.552-.448-1-1-1h-2c-.552 0-1 .448-1 1v2c0 .552.448 1 1 1zm-6-4h-2c-.552 0-1 .448-1 1v2c0 .552.448 1 1 1h2c.552 0 1-.448 1-1v-2c0-.552-.448-1-1-1zm8.167 10h-10c0-6 10-6 10 0z" fill-rule="evenodd" fill="white" transform="translate(-4 -5519)"/></svg>