<svg clip-rule="evenodd" fill-rule="evenodd" stroke-linejoin="round" stroke-miterlimit="2" viewBox="0 0 64 64" xmlns="http://www.w3.org/2000/svg"><path d="m-1152-64h1280v800h-1280z" fill="none"/><path d="m50.005 56h-35.989c-3.309 0-5.995-2.686-5.995-5.995v-36.011c0-3.308 2.686-5.995 5.995-5.995h35.989c3.309 0 5.995 2.687 5.995 5.995v36.011c0 3.309-2.686 5.995-5.995 5.995zm-.993-4.001c1.65 0 2.989-1.339 2.989-2.989v-34.021c0-1.649-1.339-2.989-2.989-2.989h-34.003c-1.65 0-2.989 1.34-2.989 2.989v34.021c0 1.65 1.339 2.989 2.989 2.989z" fill="white"/></svg>