<svg version="1.0" xmlns="http://www.w3.org/2000/svg" background="black"
 width="1200pt" height="1200.000000pt" viewBox="220 130 590.000000 590.000000"
 preserveAspectRatio="xMidYMid meet" style="background-color: black">

<g transform="translate(0.000000,1024.000000) scale(0.100000,-0.100000)"
fill="#000000" stroke="none">
<path fill="white" d="M4950 8554 c-120 -16 -304 -49 -426 -79 -496 -119 -994 -405 -1343
-771 -285 -298 -503 -657 -637 -1047 -110 -319 -154 -594 -154 -956 0 -437 88
-823 275 -1206 111 -227 154 -275 244 -275 76 0 141 61 141 133 0 13 -27 77
-61 142 -110 211 -187 418 -240 645 -68 289 -77 695 -23 1015 22 129 80 355
116 449 86 230 272 553 417 726 111 132 280 300 391 387 442 345 1008 543
1557 543 400 0 747 -82 1118 -265 261 -129 463 -275 672 -487 207 -209 335
-383 462 -628 162 -312 241 -593 272 -965 15 -187 7 -379 -25 -595 -45 -308
-123 -547 -266 -817 -77 -144 -80 -185 -21 -244 34 -34 44 -39 86 -39 100 0
144 44 245 247 148 298 231 581 275 933 18 145 20 475 4 618 -85 772 -493
1507 -1087 1960 -383 292 -775 461 -1267 548 -133 24 -180 27 -420 29 -148 2
-286 1 -305 -1z"/>
<path fill="white" d="M4995 7964 c-566 -79 -980 -276 -1331 -636 -106 -109 -182 -199 -236
-282 -48 -74 -50 -115 -9 -157 29 -28 32 -29 134 -29 l105 0 95 108 c274 314
561 504 918 611 585 176 1199 57 1699 -328 107 -83 243 -213 327 -313 l65 -78
106 0 c132 0 152 11 159 86 4 45 1 54 -43 119 -282 421 -791 748 -1347 867
-131 28 -160 30 -377 33 -129 2 -248 1 -265 -1z"/>
<path fill="white" d="M4570 6936 c-30 -7 -70 -20 -89 -30 -62 -33 -137 -113 -167 -179 -25
-54 -28 -74 -29 -157 0 -83 4 -103 27 -152 34 -74 112 -152 186 -186 50 -24
69 -27 162 -27 95 0 111 3 162 28 75 37 160 128 187 202 29 76 29 194 0 270
-25 68 -113 167 -179 200 -44 22 -142 46 -184 44 -12 0 -46 -6 -76 -13z"/>
<path fill="white" d="M5691 6940 c-231 -48 -366 -323 -261 -531 33 -63 112 -142 177 -175
53 -27 67 -29 163 -29 88 0 113 4 154 23 259 119 304 458 84 632 -85 68 -216
101 -317 80z"/>
<path fill="white" d="M3132 6538 c-20 -25 -80 -225 -106 -352 -39 -195 -49 -332 -43 -591
4 -189 10 -254 31 -365 90 -476 297 -874 621 -1193 397 -392 982 -627 1564
-627 678 0 1348 309 1757 810 97 119 170 234 244 385 83 169 131 298 176 470
58 223 69 319 68 605 0 299 -17 424 -90 679 -53 183 -57 191 -90 191 -21 0
-29 -8 -42 -42 -30 -78 -118 -252 -177 -348 -84 -139 -155 -229 -290 -368
-397 -412 -856 -637 -1388 -683 -358 -31 -788 61 -1117 239 -207 112 -359 221
-514 372 -221 215 -408 481 -507 725 -38 94 -46 105 -69 105 -10 0 -22 -6 -28
-12z"/>

</svg>
